<svg width="100" height="100" viewBox="0 0 100 100" fill="none" xmlns="http://www.w3.org/2000/svg">
<rect width="100" height="100" rx="15" fill="#FFCCC2"/>
<path d="M80.5902 48.5255C83.2191 34.1147 74.435 21.2235 60.6807 16.9429C36.2505 9.34265 18.9448 31.7058 19.1423 54.2454C19.3069 72.4585 23.2056 84.5677 23.2082 84.5703C23.0358 84.0315 27.8233 81.5093 28.3759 81.2264C28.8463 80.9877 29.3244 80.7594 29.8052 80.5388C30.2859 80.3182 30.7692 80.1081 31.2595 79.9074C31.748 79.705 32.2418 79.5156 32.7372 79.3331C33.2336 79.1506 33.7342 78.9793 34.2357 78.815C38.3528 77.444 42.6162 76.5826 46.8441 75.638C60.0639 72.6228 74.2626 66.9211 79.3203 53.2135C79.8778 51.6904 80.3018 50.1218 80.5876 48.5255H80.5902Z" fill="#FF5C28"/>
</svg>
